{"title":"Ice.Age.3.Dawn.Of.The.Dinosaurs.2009.DVDRip...SuB","uid":5046923,"size":733409929,"categoryP":"video","categoryS":"movies","magnet":"?xt=urn:btih:eb14998a7ac0ec2ef47156b28ab530c9bfc20ed7&amp;dn=Ice.Age.3.Dawn.Of.The.Dinosaurs.2009.DVDRip...SuB&amp;tr=udp%3A%2F%2Ftracker.openbittorrent.com%3A80&amp;tr=udp%3A%2F%2Fopen.demonii.com%3A1337&amp;tr=udp%3A%2F%2Ftracker.coppersurfer.tk%3A6969&amp;tr=udp%3A%2F%2Fexodus.desync.com%3A6969","seeders":0,"leechers":0,"uploader":"cybernet2u","files":5,"time":1249683919,"description":"Format                           : AVI\n\nFormat/Info                      : Audio Video Interleave\n\nFile size                        : 699 MiB\n\nDuration                         : 1h 30mn\n\nOverall bit rate                 : 1 084 Kbps\n\nWriting application              : VirtualDubMod 1.5.10.2 (build 2540/release)\n\nWriting library                  : VirtualDubMod build 2540/release\n\nOriginal source form             : MAX TORRENTZ\n\nCopyright                        : SIGISMUNT\n\n\n\nVideo\n\nFormat                           : MPEG-4 Visual\n\nFormat profile                   : Streaming Video@L1\n\nFormat settings, BVOP            : Yes\n\nFormat settings, QPel            : No\n\nFormat settings, GMC             : No warppoints\n\nFormat settings, Matrix          : Default (H.263)\n\nCodec ID                         : XVID\n\nCodec ID/Hint                    : XviD\n\nDuration                         : 1h 30mn\n\nBit rate                         : 947 Kbps\n\nWidth                            : 640 pixels\n\nHeight                           : 352 pixels\n\nDisplay aspect ratio             : 16/9\n\nFrame rate                       : 25.000 fps\n\nResolution                       : 24 bits\n\nColorimetry                      : 4:2:0\n\nScan type                        : Progressive\n\nBits/(Pixel*Frame)               : 0.168\n\nStream size                      : 611 MiB (87%)\n\nWriting library                  : XviD 1.1.2 (UTC 2006-11-01)\n\n\n\nAudio\n\nFormat                           : MPEG Audio\n\nFormat version                   : Version 1\n\nFormat profile                   : Layer 3\n\nCodec ID                         : 55\n\nCodec ID/Hint                    : MP3\n\nDuration                         : 1h 30mn\n\nBit rate mode                    : Variable\n\nBit rate                         : 124 Kbps\n\nChannel(s)                       : 2 channels\n\nSampling rate                    : 48.0 KHz\n\nResolution                       : 16 bits\n\nStream size                      : 80.3 MiB (11%)\n\nAlignment                        : Aligned on interleaves\n\nInterleave, duration             : 24 ms (0.60 video frame)\n\nInterleave, preload duration     : 154 ms\n","torrent":{"xt":"urn:btih:eb14998a7ac0ec2ef47156b28ab530c9bfc20ed7","amp;dn":"Ice.Age.3.Dawn.Of.The.Dinosaurs.2009.DVDRip...SuB","amp;tr":["udp%3A%2F%2Ftracker.openbittorrent.com%3A80","udp%3A%2F%2Fopen.demonii.com%3A1337","udp%3A%2F%2Ftracker.coppersurfer.tk%3A6969","udp%3A%2F%2Fexodus.desync.com%3A6969"],"infoHash":"eb14998a7ac0ec2ef47156b28ab530c9bfc20ed7","infoHashBuffer":{"type":"Buffer","data":[235,20,153,138,122,192,236,46,244,113,86,178,138,181,48,201,191,194,14,215]},"announce":[],"urlList":[]}}